<?xml version="1.0" encoding="UTF-8" standalone="no"?>
<svg
   xmlns:dc="http://purl.org/dc/elements/1.1/"
   xmlns:cc="http://creativecommons.org/ns#"
   xmlns:rdf="http://www.w3.org/1999/02/22-rdf-syntax-ns#"
   xmlns:svg="http://www.w3.org/2000/svg"
   xmlns="http://www.w3.org/2000/svg"
   xmlns:sodipodi="http://sodipodi.sourceforge.net/DTD/sodipodi-0.dtd"
   xmlns:inkscape="http://www.inkscape.org/namespaces/inkscape"
   viewBox="0 0 88 71.999902"
   x="0px"
   y="0px"
   id="svg2"
   version="1.1"
   inkscape:version="0.91 r13725"
   sodipodi:docname="email-icon.svg">
  <metadata
     id="metadata10">
    <rdf:RDF>
      <cc:Work
         rdf:about="">
        <dc:format>image/svg+xml</dc:format>
        <dc:type
           rdf:resource="http://purl.org/dc/dcmitype/StillImage" />
      </cc:Work>
    </rdf:RDF>
  </metadata>
  <defs
     id="defs8" />
  <sodipodi:namedview
     pagecolor="#ffffff"
     bordercolor="#666666"
     borderopacity="1"
     objecttolerance="10"
     gridtolerance="10"
     guidetolerance="10"
     inkscape:pageopacity="0"
     inkscape:pageshadow="2"
     inkscape:window-width="730"
     inkscape:window-height="480"
     id="namedview6"
     showgrid="false"
     inkscape:zoom="3.2777823"
     inkscape:cx="44"
     inkscape:cy="35.99995"
     inkscape:window-x="311"
     inkscape:window-y="241"
     inkscape:window-maximized="0"
     inkscape:current-layer="svg2" />
  <path
     d="m273.37 533.95c-5.505 0-10 4.495-10 10v52c0 5.505 4.495 10 10 10h68c5.505 0 10-4.495 10-10v-52c0-5.505-4.495-10-10-10h-68m0 4h68c3.359 0 6 2.641 6 6v.172l-40 40-40-40v-.172c0-3.359 2.641-6 6-6m-6 11.828l20.607 20.607-20.607 20.606v-41.21m80 0v40.506l-20.254-20.252 20.254-20.254m-23.08 23.08l23.08 23.08v.001c0 3.359-2.641 6-6 6h-68c-3.133 0-5.642-2.301-5.965-5.336l23.4-23.4 15.15 15.15c.781.781 2.047.781 2.828 0l15.504-15.504z"
     shape-rendering="auto"
     mix-blend-mode="normal"
     color-interpolation-filters="linearRGB"
     isolation="auto"
     white-space="normal"
     solid-opacity="1"
     image-rendering="auto"
     solid-color="#000000"
     color="#000"
     color-rendering="auto"
     color-interpolation="sRGB"
     transform="translate(-263.37-533.95)"
     id="path4"
     style="fill:#ffffff" />
</svg>
